<?xml version="1.0" encoding="utf-8"?>
<!DOCTYPE svg PUBLIC "-//W3C//DTD SVG 1.0//EN" "http://www.w3.org/TR/2001/REC-SVG-20010904/DTD/svg10.dtd">
<svg version="1.0" id="Layer_1" xmlns="http://www.w3.org/2000/svg" xmlns:xlink="http://www.w3.org/1999/xlink" x="0px" y="0px"
	 width="100px" height="100px" viewBox="0 0 100 100" enable-background="new 0 0 100 100" xml:space="preserve">
<path fill="#FFB74D" d="M25,10c-8.271,0-15,6.729-15,15s6.729,15,15,15s15-6.729,15-15S33.271,10,25,10z M25,33.333
	c-4.598,0-8.333-3.739-8.333-8.333s3.735-8.333,8.333-8.333s8.333,3.739,8.333,8.333S29.598,33.333,25,33.333z"/>
<path fill="#FFB74D" d="M75,60c-8.271,0-15,6.729-15,15s6.729,15,15,15s15-6.729,15-15S83.271,60,75,60z M75,83.333
	c-4.598,0-8.333-3.735-8.333-8.333s3.735-8.333,8.333-8.333s8.333,3.735,8.333,8.333S79.598,83.333,75,83.333z"/>
<path fill="#263238" d="M68.333,10c-11.946,0-21.666,9.72-21.666,21.667v15h-15C19.721,46.667,10,56.387,10,68.333
	C10,80.28,19.721,90,31.667,90c11.946,0,21.666-9.72,21.666-21.666v-15h15C80.279,53.334,90,43.614,90,31.667S80.279,10,68.333,10z
	 M46.667,68.333c0,8.271-6.729,15-15,15c-8.271,0-15-6.729-15-15s6.729-15,15-15h15V68.333z M68.333,46.667h-15v-15
	c0-8.271,6.729-15,15-15s15,6.729,15,15C83.333,39.938,76.604,46.667,68.333,46.667z"/>
</svg>
